<svg width="703" height="416" viewBox="0 0 703 416" xmlns="http://www.w3.org/2000/svg" xmlns:xlink="http://www.w3.org/1999/xlink"><title>devices</title><defs><path d="M594 353h62a2 2 0 0 1 2 2v8.508a5 5 0 0 1-2.898 4.537C649.412 370.682 642.045 372 633 372c-248.496 1.767-592 0-608 0-9.045 0-16.413-1.318-22.102-3.955A5 5 0 0 1 0 363.508V355a2 2 0 0 1 2-2h60V19.999c0-11.046 8.954-20 20-20h492c11.046 0 20 8.954 20 20v333z" id="b"/><filter x="-4.8%" y="-5.5%" width="109.6%" height="116.9%" filterUnits="objectBoundingBox" id="a"><feMorphology radius=".564" operator="dilate" in="SourceAlpha" result="shadowSpreadOuter1"/><feOffset dy="11" in="shadowSpreadOuter1" result="shadowOffsetOuter1"/><feGaussianBlur stdDeviation="8.5" in="shadowOffsetOuter1" result="shadowBlurOuter1"/><feComposite in="shadowBlurOuter1" in2="SourceAlpha" operator="out" result="shadowBlurOuter1"/><feColorMatrix values="0 0 0 0 0 0 0 0 0 0 0 0 0 0 0 0 0 0 0.03 0" in="shadowBlurOuter1"/></filter><path d="M1.128 80.926V76.41H.75a.75.75 0 0 1-.75-.75V56.833a.75.75 0 0 1 .75-.75h.378V45.92H.75a.75.75 0 0 1-.75-.75V34.813a.75.75 0 0 1 .75-.75h.378V18.05C1.128 8.08 9.21 0 19.18 0h93.642c9.969 0 18.05 8.082 18.05 18.051v44.258h.379a.75.75 0 0 1 .75.75v28.528a.75.75 0 0 1-.75.75h-.378V249.95c0 9.97-8.082 18.051-18.051 18.051H19.179c-9.969 0-18.05-8.082-18.05-18.051V101.252H.75a.75.75 0 0 1-.75-.75V81.676a.75.75 0 0 1 .75-.75h.378z" id="d"/><filter x="-23.9%" y="-7.7%" width="147.8%" height="123.6%" filterUnits="objectBoundingBox" id="c"><feMorphology radius=".564" operator="dilate" in="SourceAlpha" result="shadowSpreadOuter1"/><feOffset dy="11" in="shadowSpreadOuter1" result="shadowOffsetOuter1"/><feGaussianBlur stdDeviation="8.5" in="shadowOffsetOuter1" result="shadowBlurOuter1"/><feComposite in="shadowBlurOuter1" in2="SourceAlpha" operator="out" result="shadowBlurOuter1"/><feColorMatrix values="0 0 0 0 0 0 0 0 0 0 0 0 0 0 0 0 0 0 0.03 0" in="shadowBlurOuter1"/></filter></defs><g fill="none" fill-rule="evenodd"><g transform="translate(17 6)"><use fill="#000" filter="url(#a)" xlink:href="#b"/><path stroke-opacity=".198" stroke="#28282A" stroke-width=".564" d="M594.282 352.718H656a2.282 2.282 0 0 1 2.282 2.282v8.508a5.282 5.282 0 0 1-3.061 4.793c-5.73 2.656-13.138 3.981-22.219 3.981-52.77.375-112.218.609-177.244.716-102.058.169-210.337.025-321.24-.323-39.936-.126-108.531-.393-109.518-.393-9.083 0-16.49-1.325-22.221-3.981a5.282 5.282 0 0 1-3.061-4.793V355A2.282 2.282 0 0 1 2 352.718h59.718V19.998c0-11.2 9.08-20.281 20.282-20.281h492c11.201 0 20.282 9.08 20.282 20.282v332.719z" fill="#FFF"/></g><path d="M100 32h490a4 4 0 0 1 4 4v304a4 4 0 0 1-4 4H100a4 4 0 0 1-4-4V36a4 4 0 0 1 4-4z" fill="#F3F3F3"/><g transform="translate(554 120)"><use fill="#000" filter="url(#c)" xlink:href="#d"/><path stroke-opacity=".198" stroke="#28282A" stroke-width=".564" d="M.846 80.644v-3.953H.75c-.57 0-1.032-.462-1.032-1.032V56.833c0-.57.462-1.032 1.032-1.032h.096v-9.599H.75c-.57 0-1.032-.462-1.032-1.032V34.813c0-.57.462-1.032 1.032-1.032h.096v-15.73C.846 7.924 9.054-.284 19.18-.284h93.642c10.125 0 18.333 8.208 18.333 18.333v43.976h.096c.57 0 1.032.462 1.032 1.032v28.528c0 .57-.462 1.032-1.032 1.032h-.096v157.33c0 10.126-8.208 18.334-18.333 18.334H19.179c-10.125 0-18.333-8.208-18.333-18.333V101.534H.75c-.57 0-1.032-.462-1.032-1.032V81.676c0-.57.462-1.032 1.032-1.032h.096z" fill="#FFF"/></g><path d="M573.91 126.397h10.978c1.131 0 2.086.84 2.232 1.96.64 4.939 3.85 7.408 9.63 7.408h46.5c5.78 0 8.99-2.47 9.63-7.407a2.25 2.25 0 0 1 2.232-1.961h10.978c6.854 0 12.41 5.556 12.41 12.41v230.386c0 6.854-5.556 12.41-12.41 12.41h-92.18c-6.854 0-12.41-5.556-12.41-12.41V138.807c0-6.854 5.556-12.41 12.41-12.41z" fill="#F3F3F3"/></g></svg>