<svg width="16" height="15" viewBox="0 0 16 15" xmlns="http://www.w3.org/2000/svg"><title>ic_favourite</title><path d="M3.686 15.004c-.215 0-.425-.066-.6-.19a.991.991 0 0 1-.383-1.068l1.164-4.243L.379 6.741a.987.987 0 0 1-.33-1.085c.133-.396.496-.67.914-.689l4.485-.228L7.049.64a1.022 1.022 0 0 1 1.897 0l1.607 4.1 4.484.228c.417.02.78.293.914.69a.988.988 0 0 1-.329 1.084L12.14 9.5l1.165 4.243a.99.99 0 0 1-.384 1.067 1.032 1.032 0 0 1-1.15.03l-3.767-2.4-3.766 2.4a1.023 1.023 0 0 1-.552.165z" fill="#FFF" fill-rule="evenodd"/></svg>