<svg width="68" height="16" viewBox="0 0 68 16" xmlns="http://www.w3.org/2000/svg"><title>Group</title><g fill="#FEFEFE" fill-rule="evenodd"><path d="M50.653 2.073A1.845 1.845 0 1 0 48.35 3.86v9.049L36.415.972v11.252a1.845 1.845 0 1 0 .912 0V3.175l11.936 11.936V3.86a1.845 1.845 0 0 0 1.39-1.787M13.782 11.936c-.862 0-1.583.591-1.786 1.39h-9.05L14.883 1.388H3.63a1.845 1.845 0 1 0 0 .912h9.05L.743 14.238h11.252a1.844 1.844 0 1 0 1.786-2.302M60.454 14.815a6.78 6.78 0 0 1-6.773-6.774 6.78 6.78 0 0 1 6.773-6.772 6.78 6.78 0 0 1 6.773 6.772 6.78 6.78 0 0 1-6.773 6.774m0-12.393a5.626 5.626 0 0 0-5.62 5.62 5.626 5.626 0 0 0 5.62 5.62 5.626 5.626 0 0 0 5.62-5.62 5.626 5.626 0 0 0-5.62-5.62M19.952 14.238h11.275v-.942H19.952v.942zm0-11.907h11.275v-.942H19.952v.942zm0 5.954h11.275v-.942H19.952v.942z"/></g></svg>